PathFileType	4	(X/Y/Z)	C:\Users\86182\Documents\cortex\Trimmed_M3_L7.trc
DataRate	CameraRate	NumFrames	NumMarkers	Units	OrigDataRate	OrigDataStartFrame	OrigNumFrames
100.00	100.00	       84	2	mm	100.00	181	       901
Frame#	Time	gripper			box			
		X1	Y1	Z1	X2	Y2	Z2	

181	1.800	274.14413	148.98965	222.71298	276.69498	147.16740	86.60040	
182	1.810	274.24817	148.97072	223.09436	276.88705	147.17705	87.21667	
183	1.820	274.07736	148.91280	223.52051	276.70801	147.13324	87.78207	
184	1.830	274.33044	148.92456	223.93953	276.77539	147.02063	88.11959	
185	1.840	274.22003	149.04343	224.47485	276.81009	147.13028	88.43940	
186	1.850	274.23688	149.07861	224.84322	276.77188	147.22531	88.79046	
187	1.860	273.98044	148.93042	225.26860	276.71335	147.21597	89.34520	
188	1.870	274.36554	148.94481	225.72874	276.79788	147.12781	90.05109	
189	1.880	274.43274	149.09187	226.06955	276.68784	147.10497	90.27306	
190	1.890	274.21869	149.10536	226.43288	276.82358	147.23024	90.48495	
191	1.900	274.02078	149.01634	226.82495	276.82355	147.19376	90.95036	
192	1.910	274.10107	149.08202	227.41525	276.56448	147.08595	91.31068	
193	1.920	274.41733	148.99138	227.58710	276.67862	147.15454	91.79317	
194	1.930	274.15500	149.01367	228.20732	276.60333	147.18364	92.36547	
195	1.940	274.10239	149.06659	228.61545	276.70346	147.16879	92.66647	
196	1.950	274.09741	149.13286	229.04666	276.78430	147.12288	93.08401	
197	1.960	274.21347	149.12901	229.56354	276.70035	147.11447	93.54404	
198	1.970	274.20630	149.08057	229.79623	276.45721	147.15140	93.84625	
199	1.980	274.15723	149.15028	230.31485	276.57526	147.24207	94.41283	
200	1.990	274.01935	149.13422	230.90297	276.55441	147.36415	94.96742	
201	2.000	274.11465	149.21103	231.25706	276.61768	147.30830	95.23656	
202	2.010	274.24399	149.14859	231.57845	276.50385	147.32213	95.64272	
203	2.020	274.18478	149.18495	232.10899	276.29388	147.33237	96.35281	
204	2.030	274.10861	149.14034	232.49883	276.30679	147.37708	96.50706	
205	2.040	273.90305	149.26604	232.93959	276.32773	147.47446	97.02287	
206	2.050	274.08856	149.26721	233.37421	276.44351	147.59102	97.42065	
207	2.060	273.87674	149.22025	233.82245	276.72342	147.44127	97.56319	
208	2.070	273.95477	149.20576	234.12823	276.25140	147.44731	98.38612	
209	2.080	273.90024	149.30490	234.53799	276.22076	147.40440	98.68321	
210	2.090	273.90787	149.36417	235.09387	276.25140	147.44789	98.83706	
211	2.100	273.89191	149.33585	235.37840	276.30661	147.62552	99.44911	
212	2.110	273.93030	149.31323	235.73749	276.24237	147.58992	100.11417	
213	2.120	274.12573	149.22079	236.21237	276.07480	147.55742	100.39852	
214	2.130	273.97067	149.33081	236.76512	276.24374	147.42531	100.70118	
215	2.140	274.04361	149.37331	237.17761	276.45642	147.44356	101.19040	
216	2.150	273.91080	149.36511	237.60774	276.79471	147.49669	101.53719	
217	2.160	274.11517	149.27956	238.04073	276.72443	147.55824	102.00211	
218	2.170	274.06454	149.37531	238.51686	276.25873	147.62085	102.63282	
219	2.180	274.16180	149.49146	238.96950	276.36362	147.59113	103.11382	
220	2.190	273.97488	149.46297	239.60464	276.37744	147.72440	103.47477	
221	2.200	274.26569	149.39119	239.87221	277.13739	147.53198	103.53976	
222	2.210	274.16104	149.40805	240.27742	276.23969	147.71950	104.51335	
223	2.220	274.16284	149.48532	240.78729	276.43759	147.66470	104.99709	
224	2.230	273.88513	149.56354	241.28214	276.19788	147.79184	105.30876	
225	2.240	273.98468	149.58154	241.56615	276.25656	147.89107	105.62573	
226	2.250	273.87296	149.49463	241.90660	276.20621	147.88750	105.96878	
227	2.260	274.12711	149.45981	242.32518	276.07886	147.84468	106.67934	
228	2.270	274.11929	149.45694	242.78984	276.01230	147.92101	107.09808	
229	2.280	274.00027	149.60301	243.29431	276.07645	147.91899	107.35727	
230	2.290	274.07019	149.58801	243.61893	276.09985	147.91238	107.56097	
231	2.300	273.94247	149.59711	244.11401	275.81589	147.93520	108.36584	
232	2.310	273.84375	149.56526	244.43317	275.89621	147.93730	108.67374	
233	2.320	273.96414	149.51360	244.82729	275.96896	147.99957	109.11601	
234	2.330	274.20651	149.57286	245.41528	276.04852	147.91968	109.35664	
235	2.340	274.06274	149.53531	245.93240	276.16837	147.90291	109.99595	
236	2.350	273.97064	149.54767	246.17531	276.07236	148.03809	110.43141	
237	2.360	274.15701	149.63472	246.51068	275.96500	147.96613	110.79336	
238	2.370	274.19974	149.53510	247.10220	276.02103	147.77020	111.20744	
239	2.380	274.24078	149.48894	247.62845	276.39709	147.88179	111.70148	
240	2.390	274.09027	149.58240	247.90132	276.27792	147.90819	112.15816	
241	2.400	274.03961	149.55824	248.40172	276.16507	148.02730	112.50177	
242	2.410	273.84604	149.51215	248.89609	275.87314	147.93724	113.04993	
243	2.420	274.00522	149.35460	249.15669	276.02515	147.90527	113.33003	
244	2.430	273.80182	149.33716	249.62128	276.15924	147.92450	113.56113	
245	2.440	273.79764	149.40630	250.22876	276.06729	147.92833	114.06434	
246	2.450	273.86304	149.44072	250.49962	276.00443	147.84570	114.63042	
247	2.460	273.73474	149.42245	250.80998	275.87976	147.92043	115.13553	
248	2.470	273.60162	149.30174	251.15436	275.75098	148.00197	115.41180	
249	2.480	273.84778	149.38489	251.72620	276.04922	147.94754	115.59991	
250	2.490	273.80725	149.41234	252.24028	275.84961	147.78862	116.02604	
251	2.500	273.55020	149.37032	252.59811	275.68069	147.79474	116.72628	
252	2.510	273.56882	149.21773	252.94228	275.87436	147.87074	117.16141	
253	2.520	273.72522	149.33656	253.41237	275.75510	147.92575	117.64742	
254	2.530	273.50662	149.46976	253.79616	275.82956	147.84026	117.78748	
255	2.540	273.53275	149.36261	254.41861	275.79959	147.79626	118.28481	
256	2.550	273.73828	149.30884	254.87965	275.54794	147.77693	118.87164	
257	2.560	273.78613	149.38011	255.18329	275.69595	147.88992	119.30108	
258	2.570	273.65433	149.30203	255.55867	276.07599	147.84776	120.07121	
259	2.580	273.51227	149.37219	255.95137	275.95166	147.86958	120.09314	
260	2.590	273.75900	149.44003	256.63678	275.64542	147.79265	120.42072	
261	2.600	273.92456	149.37093	256.92990	275.55676	147.73999	121.01680	
262	2.610	273.84308	149.28505	257.31061	275.73859	147.85652	121.55375	
263	2.620	273.72208	149.44394	257.80893	275.78171	147.94856	121.90801	
264	2.630	273.50372	149.44452	258.20761	275.66528	147.77531	122.35974	
